<svg width="32" height="32" viewBox="0 0 32 32" fill="none" xmlns="http://www.w3.org/2000/svg">
<g clip-path="url(#clip0_23_186)">
<path d="M2.55882 8.99343C2.77309 9.03991 2.97199 9.03653 3.58283 8.56762C3.8542 8.35902 4.25507 8.00835 4.6252 7.51828L4.78739 7.30336C6.17424 5.45873 9.42103 1.14015 14.1105 1.37512C17.9778 1.6571 20.7195 4.57757 22.0378 9.8212C22.0828 9.99947 22.1099 10.1085 22.1401 10.193C22.3418 11.0502 22.6797 12.1185 23.1669 12.4704C23.2873 12.5577 23.4273 12.5993 23.5659 12.5993C23.7772 12.5993 23.9865 12.5014 24.1199 12.3163C24.333 12.0212 24.2764 11.6128 23.9967 11.3866C23.862 11.2121 23.6088 10.4824 23.4579 9.82967C23.4491 9.7908 23.4364 9.7533 23.4211 9.7169C23.4084 9.67224 23.3841 9.57497 23.3619 9.48792C23.153 8.65649 22.5979 6.44883 21.2513 4.37261C19.5122 1.69128 17.1403 0.224082 14.2013 0.0123518C14.1967 0.0116356 14.1922 0.0116356 14.1869 0.0116356C8.76995 -0.265007 5.21397 4.46369 3.69599 6.48262L3.53641 6.69467C3.12083 7.24418 2.62979 7.58626 2.46057 7.68528C2.4036 7.70814 2.34813 7.73874 2.29663 7.77754C2.08418 7.93849 1.9804 8.21305 2.03757 8.47322C2.0948 8.733 2.29832 8.93646 2.55882 8.99343Z" fill="#2499FF"/>
<path d="M2.86275 16.0044C5.11665 15.3913 7.19899 14.1426 7.29007 14.0879C10.2305 12.2873 12.8975 9.44993 12.9199 9.42317C14.0208 8.1621 15.6499 6.95298 16.9205 7.34194C17.6687 7.57105 18.1875 7.97849 18.4623 8.55326C18.7915 9.241 18.7659 10.1714 18.3924 11.1054C18.353 11.204 18.308 11.3039 18.2591 11.4048C18.7392 11.4306 19.2078 11.5001 19.6612 11.609C20.175 10.3224 20.1877 8.99385 19.6938 7.96339C19.2541 7.04296 18.4331 6.37659 17.3208 6.03588C15.6879 5.53618 13.7088 6.44287 11.8954 8.52058C11.8723 8.5461 9.29109 11.261 6.58059 12.9207C6.56073 12.9327 4.57645 14.1227 2.50421 14.6877C2.14032 14.7863 1.92572 15.1621 2.02475 15.5254C2.12333 15.8893 2.49861 16.1043 2.86275 16.0044Z" fill="#2499FF"/>
<path d="M10.0185 19.2103C10.0185 18.9397 10.0323 18.6723 10.0593 18.4087C8.14264 19.5733 5.64407 21.009 3.6926 21.8429C3.34577 21.9913 3.18502 22.392 3.33308 22.7393C3.44409 22.9988 3.69612 23.1539 3.96137 23.1539C4.05102 23.1539 4.14217 23.136 4.22974 23.0991C6.01278 22.3362 8.21914 21.0998 10.0584 20.0029C10.032 19.7422 10.0185 19.4778 10.0185 19.2103Z" fill="#2499FF"/>
<path d="M14.8696 2.92336C12.401 3.17949 10.2898 4.72267 8.66313 6.51411C8.35341 6.85566 8.07534 7.22242 7.77565 7.57211C7.3835 8.0306 6.95483 8.45907 6.50702 8.86313C6.04678 9.2789 5.67423 9.57593 5.1315 9.88831C4.55549 10.2183 3.96835 10.5525 3.37183 10.8432C3.16655 10.9434 2.98998 11.0082 2.75917 11.0776C2.40323 11.1848 2.18212 11.5522 2.28252 11.9177C2.37907 12.2699 2.76588 12.502 3.12254 12.395C3.82062 12.1847 4.4534 11.8252 5.08338 11.4671C5.61616 11.1646 6.1447 10.892 6.63379 10.5198C7.58762 9.79482 8.4081 8.94829 9.16283 8.02142C9.46864 7.64607 9.79522 7.28889 10.1368 6.94551C10.3231 6.75826 10.5156 6.57772 10.7127 6.40082C10.8151 6.30902 10.9192 6.21969 11.0247 6.13069C11.078 6.08603 11.1319 6.04169 11.1865 5.99755C11.2004 5.98596 11.3065 5.90242 11.3333 5.88081C11.8089 5.51653 12.3156 5.19275 12.8487 4.9191C13.3522 4.66004 13.8572 4.47924 14.47 4.3513C14.6733 4.30911 14.7176 4.30455 14.8696 4.28906C15.2396 4.2509 15.5524 4.00727 15.5524 3.60647C15.5524 3.2627 15.2404 2.88495 14.8696 2.92336Z" fill="#2499FF"/>
<path d="M3.34944 19.5887C4.25587 19.2776 7.45259 18.0943 10.7752 15.857C11.7097 13.8974 13.4363 12.3854 15.5384 11.7377C15.9511 11.2672 16.3455 10.7743 16.7143 10.2573C16.933 9.95048 16.8621 9.52441 16.5549 9.30493C16.2478 9.08598 15.8211 9.15733 15.602 9.46432C11.5794 15.1036 4.32019 17.8113 2.9056 18.2979C2.87539 18.3077 2.8567 18.3141 2.85019 18.3162C2.49751 18.4505 2.31989 18.8445 2.45356 19.197C2.55695 19.4699 2.8166 19.6374 3.09252 19.6374C3.16961 19.6374 3.24852 19.6247 3.32522 19.5973L3.34944 19.5887Z" fill="#2499FF"/>
<path d="M11.1185 23.2043C10.8842 22.8118 10.6834 22.3971 10.5198 21.9641C10.2958 22.1107 10.0635 22.2635 9.82153 22.4228C8.11708 23.5467 6.18449 24.8204 5.34415 25.0466C4.98006 25.1451 4.7643 25.5194 4.86222 25.8835C4.94432 26.1887 5.21992 26.389 5.52143 26.389C5.58016 26.389 5.63973 26.3816 5.69885 26.3658C6.75262 26.0815 8.60864 24.8582 10.5737 23.5633C10.7512 23.4461 10.9338 23.3258 11.1185 23.2043Z" fill="#2499FF"/>
<path d="M20.2196 26.9983C20.0819 26.9485 19.9227 26.8767 19.7479 26.7886C19.1247 26.946 18.4818 27.0273 17.8356 27.0273C17.6967 27.0273 17.5588 27.0234 17.4218 27.0163C18.3029 27.5596 19.127 28.0558 19.7564 28.2838C20.1102 28.4118 20.5021 28.2282 20.6301 27.8729C20.7582 27.5175 20.5748 27.1264 20.2196 26.9983Z" fill="#2499FF"/>
<path d="M12.4153 24.8374C11.4543 25.4311 10.163 26.3458 8.49279 27.5657C8.12819 27.8312 7.81366 28.0608 7.59541 28.2154C7.28778 28.4335 7.21427 28.8591 7.43147 29.1672C7.5652 29.3554 7.77589 29.4561 7.9899 29.4561C8.12604 29.4561 8.26361 29.4153 8.38322 29.3313C8.61005 29.1708 8.92856 28.9377 9.29778 28.6692C10.2216 27.9943 12.3393 26.4482 13.5504 25.7449C13.1443 25.4775 12.7643 25.1736 12.4153 24.8374Z" fill="#2499FF"/>
<path d="M17.9138 30.3928C17.5299 30.1424 17.1778 29.8905 16.8359 29.6479C15.7166 28.8477 14.7485 28.1567 13.6876 28.3415C12.4929 28.5479 10.5906 30.4612 10.221 30.8418C9.95877 31.113 9.966 31.5454 10.2368 31.8077C10.3694 31.9354 10.5406 32.0001 10.7112 32.0001C10.8899 32.0001 11.0682 31.9308 11.2019 31.7922C12.1165 30.8473 13.4158 29.7745 13.9199 29.6873C14.4179 29.6014 15.1718 30.1375 16.0431 30.7595C16.3787 30.9994 16.7593 31.2702 17.1674 31.5368C17.483 31.743 17.9065 31.654 18.1126 31.3381C18.3183 31.0218 18.2289 30.5993 17.9138 30.3928Z" fill="#2499FF"/>
<path d="M29.6095 29.4103L23.4809 23.2817C24.4046 22.1194 24.9574 20.6498 24.9574 19.0532C24.9574 15.2995 21.9035 12.2456 18.1498 12.2456C14.3961 12.2456 11.3422 15.2995 11.3422 19.0532C11.3422 22.8068 14.3961 25.8607 18.1498 25.8607C19.3436 25.8607 20.4663 25.5515 21.4428 25.0095L27.7266 31.2933C27.9866 31.5532 28.3273 31.6832 28.668 31.6832C29.0087 31.6832 29.3495 31.5532 29.6094 31.2933C30.1294 30.7732 30.1294 29.9303 29.6095 29.4103ZM14.7843 22.587C14.7653 22.6467 14.7327 22.6766 14.6866 22.6766C14.6763 22.6766 14.6669 22.6747 14.658 22.6717C14.6395 22.654 14.6205 22.6368 14.6023 22.6187C14.5977 22.6098 14.593 22.6008 14.5894 22.5898C14.5701 22.5318 14.5604 22.4257 14.5604 22.2711C14.5604 22.1153 14.5701 22.0082 14.5894 21.9496C14.6087 21.8911 14.6411 21.8617 14.6866 21.8617C14.7321 21.8617 14.7645 21.8921 14.7838 21.9529C14.8031 22.0136 14.8127 22.1197 14.8127 22.2711C14.8128 22.4219 14.8033 22.5272 14.7843 22.587ZM22.5061 21.5678C22.355 21.5745 22.241 21.6303 22.1651 21.7365C22.088 21.8442 22.0481 22.0115 22.0444 22.2363C21.9467 22.3557 21.8434 22.4702 21.7352 22.58V21.5859H21.4025L20.9334 21.9682L21.1249 22.2038L21.2801 22.0757C21.3143 22.0451 21.343 22.0159 21.3661 21.9879C21.3623 22.0607 21.3605 22.1411 21.3605 22.2289V22.925C20.4885 23.6492 19.3693 24.0854 18.1499 24.0854C16.9255 24.0854 15.8023 23.6454 14.9288 22.916C14.98 22.8884 15.0235 22.8509 15.0585 22.8022C15.1395 22.6897 15.18 22.5127 15.18 22.2709C15.18 22.0373 15.1385 21.8614 15.0552 21.7434C14.9721 21.6253 14.8492 21.5662 14.6865 21.5662C14.5195 21.5662 14.3956 21.6229 14.3146 21.7363C14.2463 21.8318 14.2073 21.9737 14.1965 22.1612C14.1333 22.081 14.0722 21.9989 14.0138 21.9149C13.9938 21.8484 13.9674 21.7909 13.9338 21.7432C13.9067 21.7048 13.875 21.6734 13.8396 21.6474C13.5087 21.0998 13.2792 20.4848 13.1773 19.8278C13.1834 19.838 13.1893 19.8484 13.196 19.8579C13.2788 19.9753 13.4019 20.034 13.5651 20.034C13.7321 20.034 13.8561 19.9778 13.9371 19.8653C14.0181 19.7528 14.0586 19.5758 14.0586 19.3339C14.0586 19.1003 14.017 18.9245 13.9338 18.8064C13.8507 18.6883 13.7278 18.6293 13.5651 18.6293C13.3981 18.6293 13.2742 18.686 13.1932 18.7993C13.1632 18.8413 13.1389 18.8921 13.1201 18.9516C13.1331 18.2946 13.2712 17.6674 13.514 17.0947C13.5307 17.0961 13.5476 17.0971 13.5651 17.0971C13.7321 17.0971 13.8561 17.0408 13.9371 16.9284C14.0181 16.816 14.0586 16.6389 14.0586 16.3971C14.0586 16.3075 14.0523 16.2265 14.0401 16.154C14.9522 14.8646 16.4539 14.0204 18.1499 14.0204C19.7829 14.0204 21.2361 14.8028 22.1561 16.0118L22.0548 16.0944L22.2463 16.3299L22.3327 16.2585C22.3847 16.3361 22.4342 16.4154 22.4818 16.496V17.0783H22.7782C23.0379 17.6848 23.1822 18.3522 23.1822 19.0527C23.1822 19.9688 22.9353 20.8274 22.5061 21.5678ZM13.439 19.3343C13.439 19.1785 13.4487 19.0714 13.468 19.0128C13.4873 18.9543 13.5197 18.9249 13.5652 18.9249C13.6106 18.9249 13.6431 18.9553 13.6624 19.0159C13.6817 19.0767 13.6914 19.1827 13.6914 19.3342C13.6914 19.4849 13.6819 19.5903 13.6629 19.6502C13.6438 19.7099 13.6113 19.7399 13.5652 19.7399C13.5197 19.7399 13.4873 19.7109 13.468 19.6529C13.4486 19.5951 13.439 19.4889 13.439 19.3343Z" fill="#2499FF"/>
<path d="M14.5511 16.2021C14.5854 16.1716 14.6141 16.1424 14.6371 16.1142C14.6334 16.1872 14.6315 16.2675 14.6315 16.3553V17.0787H15.0063V15.7124H14.6736L14.2044 16.0947L14.396 16.3302L14.5511 16.2021Z" fill="#2499FF"/>
<path d="M15.8082 15.6929C15.6412 15.6929 15.5172 15.7496 15.4362 15.863C15.3551 15.9763 15.3146 16.1546 15.3146 16.3975C15.3146 16.6294 15.3561 16.8039 15.439 16.9213C15.5218 17.0388 15.6449 17.0975 15.8082 17.0975C15.9752 17.0975 16.0991 17.0412 16.18 16.9288C16.261 16.8164 16.3015 16.6393 16.3015 16.3975C16.3015 16.1639 16.2599 15.9881 16.1767 15.87C16.0936 15.7519 15.9707 15.6929 15.8082 15.6929ZM15.9058 16.7134C15.8868 16.7733 15.8542 16.8032 15.8082 16.8032C15.7626 16.8032 15.7303 16.7742 15.7109 16.7162C15.6916 16.6582 15.682 16.552 15.682 16.3975C15.682 16.2417 15.6916 16.1346 15.7109 16.076C15.7303 16.0174 15.7626 15.988 15.8082 15.988C15.8536 15.988 15.886 16.0185 15.9054 16.0791C15.9247 16.1398 15.9343 16.2459 15.9343 16.3973C15.9343 16.5483 15.9248 16.6536 15.9058 16.7134Z" fill="#2499FF"/>
<path d="M16.7941 16.2021C16.8283 16.1716 16.857 16.1424 16.88 16.1142C16.8762 16.1872 16.8744 16.2675 16.8744 16.3553V17.0787H17.2492V15.7124H16.9165L16.4473 16.0947L16.6389 16.3302L16.7941 16.2021Z" fill="#2499FF"/>
<path d="M18.0511 15.6929C17.8841 15.6929 17.7601 15.7496 17.6792 15.863C17.5982 15.9763 17.5577 16.1546 17.5577 16.3975C17.5577 16.6294 17.5992 16.8039 17.682 16.9213C17.7649 17.0388 17.8879 17.0975 18.0511 17.0975C18.2181 17.0975 18.3422 17.0412 18.4231 16.9288C18.5041 16.8164 18.5446 16.6393 18.5446 16.3975C18.5446 16.1639 18.503 15.9881 18.4198 15.87C18.3366 15.7519 18.2137 15.6929 18.0511 15.6929ZM18.1487 16.7134C18.1297 16.7733 18.0972 16.8032 18.0511 16.8032C18.0057 16.8032 17.9733 16.7742 17.9539 16.7162C17.9345 16.6582 17.9249 16.552 17.9249 16.3975C17.9249 16.2417 17.9345 16.1346 17.9539 16.076C17.9733 16.0174 18.0056 15.988 18.0511 15.988C18.0966 15.988 18.1289 16.0185 18.1483 16.0791C18.1676 16.1398 18.1772 16.2459 18.1772 16.3973C18.1773 16.5483 18.1677 16.6536 18.1487 16.7134Z" fill="#2499FF"/>
<path d="M19.1726 15.6929C19.0057 15.6929 18.8816 15.7496 18.8006 15.863C18.7196 15.9763 18.6791 16.1546 18.6791 16.3975C18.6791 16.6294 18.7206 16.8039 18.8035 16.9213C18.8862 17.0388 19.0094 17.0975 19.1726 17.0975C19.3395 17.0975 19.4636 17.0412 19.5445 16.9288C19.6255 16.8164 19.666 16.6393 19.666 16.3975C19.666 16.1639 19.6244 15.9881 19.5412 15.87C19.4581 15.7519 19.3352 15.6929 19.1726 15.6929ZM19.2703 16.7134C19.2512 16.7733 19.2187 16.8032 19.1726 16.8032C19.1271 16.8032 19.0947 16.7742 19.0754 16.7162C19.0561 16.6582 19.0465 16.552 19.0465 16.3975C19.0465 16.2417 19.0561 16.1346 19.0754 16.076C19.0947 16.0174 19.1271 15.988 19.1726 15.988C19.218 15.988 19.2505 16.0185 19.2698 16.0791C19.2891 16.1398 19.2987 16.2459 19.2987 16.3973C19.2988 16.5483 19.2892 16.6536 19.2703 16.7134Z" fill="#2499FF"/>
<path d="M20.1586 16.2021C20.1928 16.1716 20.2216 16.1424 20.2446 16.1142C20.2408 16.1872 20.239 16.2675 20.239 16.3553V17.0787H20.6138V15.7124H20.2811L19.8118 16.0947L20.0034 16.3302L20.1586 16.2021Z" fill="#2499FF"/>
<path d="M20.9333 16.0946L21.1248 16.3301L21.2799 16.2021C21.3142 16.1715 21.3428 16.1423 21.3659 16.1142C21.3622 16.1872 21.3603 16.2674 21.3603 16.3553V17.0786H21.7351V15.7124H21.4025L20.9333 16.0946Z" fill="#2499FF"/>
<path d="M14.6866 18.6296C14.5196 18.6296 14.3957 18.6863 14.3147 18.7996C14.2337 18.9131 14.1932 19.0913 14.1932 19.3342C14.1932 19.5661 14.2346 19.7406 14.3175 19.858C14.4003 19.9755 14.5234 20.0343 14.6866 20.0343C14.8536 20.0343 14.9776 19.978 15.0586 19.8655C15.1396 19.7531 15.1801 19.576 15.1801 19.3342C15.1801 19.1006 15.1385 18.9248 15.0553 18.8066C14.9721 18.6885 14.8493 18.6296 14.6866 18.6296ZM14.7843 19.6503C14.7653 19.71 14.7327 19.74 14.6866 19.74C14.6411 19.74 14.6088 19.7111 14.5894 19.653C14.5701 19.5951 14.5604 19.4889 14.5604 19.3342C14.5604 19.1785 14.5701 19.0714 14.5894 19.0127C14.6087 18.9543 14.6411 18.9248 14.6866 18.9248C14.7321 18.9248 14.7645 18.9552 14.7838 19.0159C14.8031 19.0767 14.8127 19.1827 14.8127 19.3342C14.8128 19.485 14.8033 19.5904 14.7843 19.6503Z" fill="#2499FF"/>
<path d="M15.753 20.0155H16.1278V18.6492H15.7951L15.3259 19.0314L15.5175 19.2668L15.6726 19.1388C15.7069 19.1084 15.7355 19.079 15.7586 19.0509C15.7548 19.1239 15.753 19.2042 15.753 19.292L15.753 20.0155Z" fill="#2499FF"/>
<path d="M16.9296 18.6296C16.7627 18.6296 16.6386 18.6863 16.5576 18.7996C16.4767 18.9131 16.4362 19.0913 16.4362 19.3342C16.4362 19.5661 16.4776 19.7406 16.5604 19.858C16.6433 19.9755 16.7664 20.0343 16.9296 20.0343C17.0965 20.0343 17.2206 19.978 17.3016 19.8655C17.3826 19.7531 17.4231 19.576 17.4231 19.3342C17.4231 19.1006 17.3814 18.9248 17.2983 18.8066C17.2152 18.6886 17.0922 18.6296 16.9296 18.6296ZM17.0273 19.6503C17.0083 19.71 16.9758 19.74 16.9297 19.74C16.8842 19.74 16.8518 19.7111 16.8325 19.653C16.8132 19.5951 16.8036 19.4889 16.8036 19.3342C16.8036 19.1785 16.8132 19.0714 16.8325 19.0127C16.8518 18.9543 16.8842 18.9248 16.9297 18.9248C16.9751 18.9248 17.0075 18.9552 17.0269 19.0159C17.0462 19.0767 17.0557 19.1827 17.0557 19.3342C17.0557 19.485 17.0463 19.5904 17.0273 19.6503Z" fill="#2499FF"/>
<path d="M17.5688 19.0315L17.7603 19.2669L17.9155 19.1388C17.9497 19.1084 17.9784 19.0791 18.0014 19.051C17.9977 19.1239 17.9958 19.2043 17.9958 19.2921V20.0155H18.3706V18.6492H18.0379L17.5688 19.0315Z" fill="#2499FF"/>
<path d="M19.1726 18.6296C19.0057 18.6296 18.8816 18.6863 18.8006 18.7996C18.7196 18.9131 18.6791 19.0913 18.6791 19.3342C18.6791 19.5661 18.7206 19.7406 18.8035 19.858C18.8862 19.9755 19.0094 20.0343 19.1726 20.0343C19.3395 20.0343 19.4636 19.978 19.5445 19.8655C19.6255 19.7531 19.666 19.576 19.666 19.3342C19.666 19.1006 19.6244 18.9248 19.5412 18.8066C19.4581 18.6886 19.3352 18.6296 19.1726 18.6296ZM19.2703 19.6503C19.2512 19.71 19.2187 19.74 19.1726 19.74C19.1271 19.74 19.0947 19.7111 19.0754 19.653C19.0561 19.5951 19.0465 19.4889 19.0465 19.3342C19.0465 19.1785 19.0561 19.0714 19.0754 19.0127C19.0947 18.9543 19.1271 18.9248 19.1726 18.9248C19.218 18.9248 19.2505 18.9552 19.2698 19.0159C19.2891 19.0767 19.2987 19.1827 19.2987 19.3342C19.2988 19.485 19.2892 19.5904 19.2703 19.6503Z" fill="#2499FF"/>
<path d="M20.2941 18.6296C20.1271 18.6296 20.0031 18.6863 19.9221 18.7996C19.8412 18.9131 19.8007 19.0913 19.8007 19.3342C19.8007 19.5661 19.8421 19.7406 19.9249 19.858C20.0077 19.9755 20.1309 20.0343 20.2941 20.0343C20.461 20.0343 20.5851 19.978 20.6661 19.8655C20.7471 19.7531 20.7876 19.576 20.7876 19.3342C20.7876 19.1006 20.7459 18.9248 20.6628 18.8066C20.5796 18.6885 20.4567 18.6296 20.2941 18.6296ZM20.3918 19.6503C20.3728 19.71 20.3402 19.74 20.2941 19.74C20.2486 19.74 20.2162 19.7111 20.1969 19.653C20.1776 19.5951 20.1679 19.4889 20.1679 19.3342C20.1679 19.1785 20.1776 19.0714 20.1969 19.0127C20.2162 18.9543 20.2486 18.9248 20.2941 18.9248C20.3396 18.9248 20.372 18.9552 20.3913 19.0159C20.4106 19.0767 20.4202 19.1827 20.4202 19.3342C20.4202 19.485 20.4108 19.5904 20.3918 19.6503Z" fill="#2499FF"/>
<path d="M20.9333 19.0315L21.1248 19.2669L21.2799 19.1388C21.3142 19.1084 21.3428 19.0791 21.3659 19.051C21.3622 19.1239 21.3603 19.2043 21.3603 19.2921V20.0155H21.7351V18.6492H21.4025L20.9333 19.0315Z" fill="#2499FF"/>
<path d="M22.537 18.6296C22.37 18.6296 22.246 18.6863 22.1651 18.7996C22.084 18.9131 22.0436 19.0913 22.0436 19.3342C22.0436 19.5661 22.0851 19.7406 22.1679 19.858C22.2507 19.9755 22.3737 20.0343 22.537 20.0343C22.7039 20.0343 22.828 19.978 22.909 19.8655C22.99 19.7531 23.0305 19.576 23.0305 19.3342C23.0305 19.1006 22.9889 18.9248 22.9057 18.8066C22.8226 18.6886 22.6997 18.6296 22.537 18.6296ZM22.6347 19.6503C22.6157 19.71 22.5831 19.74 22.537 19.74C22.4915 19.74 22.4592 19.7111 22.4398 19.653C22.4206 19.5951 22.4109 19.4889 22.4109 19.3342C22.4109 19.1785 22.4206 19.0714 22.4398 19.0127C22.4592 18.9543 22.4915 18.9248 22.537 18.9248C22.5824 18.9248 22.6148 18.9552 22.6342 19.0159C22.6535 19.0767 22.6631 19.1827 22.6631 19.3342C22.6631 19.485 22.6537 19.5904 22.6347 19.6503Z" fill="#2499FF"/>
<path d="M15.8082 21.5664C15.6412 21.5664 15.5172 21.6231 15.4362 21.7364C15.3551 21.8498 15.3146 22.028 15.3146 22.271C15.3146 22.5028 15.3561 22.6774 15.439 22.7949C15.5219 22.9123 15.6449 22.971 15.8082 22.971C15.9752 22.971 16.0991 22.9149 16.18 22.8023C16.261 22.6898 16.3015 22.5128 16.3015 22.2711C16.3015 22.0374 16.2599 21.8615 16.1767 21.7435C16.0936 21.6253 15.9707 21.5664 15.8082 21.5664ZM15.9058 22.5869C15.8868 22.6467 15.8542 22.6766 15.8082 22.6766C15.7626 22.6766 15.7303 22.6476 15.7109 22.5897C15.6916 22.5317 15.682 22.4256 15.682 22.2709C15.682 22.1152 15.6916 22.008 15.7109 21.9494C15.7303 21.891 15.7626 21.8616 15.8082 21.8616C15.8536 21.8616 15.886 21.8919 15.9054 21.9528C15.9247 22.0135 15.9343 22.1196 15.9343 22.2709C15.9343 22.4219 15.9248 22.5271 15.9058 22.5869Z" fill="#2499FF"/>
<path d="M16.4474 21.9683L16.6389 22.2037L16.7941 22.0757C16.8283 22.0451 16.857 22.0159 16.88 21.9878C16.8762 22.0608 16.8744 22.141 16.8744 22.2289V22.9522H17.2492V21.5859H16.9165L16.4474 21.9683Z" fill="#2499FF"/>
<path d="M17.5688 21.9683L17.7603 22.2037L17.9155 22.0757C17.9497 22.0451 17.9784 22.0159 18.0014 21.9878C17.9977 22.0608 17.9958 22.141 17.9958 22.2289V22.9522H18.3706V21.5859H18.0379L17.5688 21.9683Z" fill="#2499FF"/>
<path d="M18.6904 21.9683L18.882 22.2037L19.0371 22.0757C19.0713 22.0451 19.1 22.0159 19.1231 21.9878C19.1193 22.0608 19.1174 22.141 19.1174 22.2289V22.9522H19.4922V21.5859H19.1595L18.6904 21.9683Z" fill="#2499FF"/>
<path d="M20.2941 21.5664C20.1271 21.5664 20.0031 21.6231 19.9221 21.7364C19.8412 21.8498 19.8007 22.028 19.8007 22.271C19.8007 22.5028 19.8421 22.6774 19.9249 22.7949C20.0077 22.9123 20.1309 22.971 20.2941 22.971C20.461 22.971 20.5851 22.9149 20.6661 22.8023C20.7471 22.6898 20.7876 22.5128 20.7876 22.2711C20.7876 22.0374 20.7459 21.8615 20.6628 21.7435C20.5796 21.6253 20.4567 21.5664 20.2941 21.5664ZM20.3918 22.5869C20.3728 22.6467 20.3402 22.6766 20.2941 22.6766C20.2486 22.6766 20.2162 22.6476 20.1969 22.5897C20.1776 22.5317 20.1679 22.4256 20.1679 22.2709C20.1679 22.1152 20.1776 22.008 20.1969 21.9494C20.2162 21.891 20.2486 21.8616 20.2941 21.8616C20.3396 21.8616 20.372 21.8919 20.3913 21.9528C20.4106 22.0135 20.4202 22.1196 20.4202 22.2709C20.4202 22.4219 20.4108 22.5271 20.3918 22.5869Z" fill="#2499FF"/>
</g>
<defs>
<clipPath id="clip0_23_186">
<rect width="32" height="32" fill="white"/>
</clipPath>
</defs>
</svg>
