<svg width="32" height="32" viewBox="0 0 32 32" fill="none" xmlns="http://www.w3.org/2000/svg">
<g clip-path="url(#clip0_23_223)">
<path d="M31.4045 16.0521C30.9988 12.2349 28.8614 9.14835 26.0244 7.04579C23.1564 4.91829 19.5684 3.75054 16.1697 3.74829C12.642 3.74885 10.4658 4.1966 9.02519 4.81592C7.60169 5.41867 6.91431 6.25217 6.53687 6.7436C4.99437 6.99542 3.458 7.89035 2.23875 9.16217C0.944188 10.5215 0.003375 12.339 0 14.3364C0 16.522 0.507 18.3689 1.51869 19.7425C2.41581 20.9672 3.72419 21.772 5.28162 22.0642C5.384 22.6552 5.62913 23.3144 6.13613 23.9172C6.66188 24.5459 7.37913 25.0036 8.227 25.2942C9.076 25.5864 10.0601 25.7214 11.1791 25.7225H15.8719C15.9875 26.018 16.1286 26.2997 16.3229 26.5483C16.8006 27.1599 17.4885 27.5893 18.3126 27.8583C19.1406 28.1289 20.1163 28.2513 21.2498 28.2518C21.8066 28.2518 22.334 28.2264 22.7817 28.2048H22.7834C23.1044 28.1877 23.3806 28.1755 23.577 28.1755C24.1686 28.1755 24.7349 28.0316 25.2219 27.7493C25.7089 27.4682 26.1129 27.0514 26.3891 26.5395C26.5286 26.2799 26.6205 26.0076 26.6891 25.7331C27.7346 25.5377 28.6019 25.1559 29.2771 24.6689C30.0685 24.0988 30.6125 23.412 30.9823 22.7882C31.7045 21.5662 31.9989 20.2103 32.0001 18.9517C31.9989 17.879 31.7819 16.88 31.4045 16.0521ZM29.7414 22.0531C29.4508 22.5429 29.0319 23.0682 28.4341 23.4982C27.8353 23.9277 27.0566 24.2719 25.9929 24.3931L25.3979 24.4601L25.3542 25.0573C25.3359 25.3152 25.2557 25.6052 25.1206 25.8548C24.964 26.1409 24.7559 26.3524 24.5007 26.5007C24.2445 26.648 23.9379 26.7326 23.577 26.7331C23.3224 26.7331 23.0324 26.7481 22.7109 26.7641L22.831 26.7586L22.7114 26.7641C22.2648 26.7863 21.7628 26.8101 21.2498 26.8101C19.8783 26.8123 18.8561 26.6004 18.2031 26.2561C17.8749 26.0851 17.6368 25.887 17.4603 25.6617C17.2849 25.4353 17.1659 25.1779 17.0989 24.8564L16.9799 24.2803H11.1792C10.1786 24.2803 9.34781 24.1558 8.69637 23.9317C8.04387 23.7053 7.57512 23.3893 7.24137 22.9908C6.80638 22.4717 6.67737 21.9083 6.66081 21.4135L6.64144 20.7837L6.01494 20.7184C4.545 20.5572 3.45963 19.9357 2.67875 18.8863C1.90225 17.8354 1.44181 16.305 1.44181 14.3364C1.43844 12.81 2.18394 11.3068 3.282 10.1567C4.37344 9.00335 5.81075 8.2396 6.99569 8.12779L7.26744 8.09954L7.45281 7.89917C7.53581 7.80842 7.60169 7.72098 7.65869 7.64904C8.03281 7.18192 8.41581 6.66117 9.59631 6.14035C10.7741 5.6306 12.7621 5.18898 16.1697 5.18954C19.2369 5.18729 22.5621 6.26654 25.1654 8.2031C27.7733 10.1435 29.6517 12.9002 29.9838 16.3017L29.9965 16.4329L30.0541 16.5508C30.3569 17.1618 30.56 18.0263 30.5583 18.9517C30.5583 19.986 30.312 21.0907 29.7414 22.0531Z" fill="#2499FF"/>
<path d="M22.3151 9.15107H23.8188C24.1421 9.15107 24.405 8.88594 24.405 8.55275C24.405 8.22682 24.1421 7.96338 23.8188 7.96338H22.3151C21.982 7.96338 21.718 8.22688 21.718 8.55275C21.718 8.88594 21.982 9.15107 22.3151 9.15107Z" fill="#2499FF"/>
<path d="M15.2631 14.8316C15.2631 15.1621 15.5287 15.4294 15.8569 15.4294C16.1796 15.4294 16.4491 15.1621 16.4491 14.8316V11.5929C16.4491 11.443 16.4934 11.408 16.5045 11.3942C16.6932 11.2088 17.3966 11.2088 17.8897 11.2088L17.9086 11.2155H21.7977C21.8729 11.2155 21.9527 11.2088 22.0418 11.2088C22.3551 11.195 22.7419 11.1817 22.9041 11.3383C23.007 11.439 23.0668 11.6627 23.0668 11.9626V13.9506V14.0391C23.0541 14.4481 23.0518 15.1366 23.5123 15.6043C23.6916 15.7891 24.0248 16.0083 24.5683 16.0083H27.6239C27.9449 16.0083 28.2084 15.7437 28.2084 15.4111C28.2084 15.0862 27.9449 14.8161 27.6239 14.8161H24.5683L24.3547 14.7658C24.2462 14.6535 24.2534 14.245 24.2534 14.0491V11.9625C24.2534 11.3183 24.073 10.8202 23.7287 10.4876C23.1985 9.97896 22.4774 10 22.0019 10.0199C21.9233 10.0199 21.8581 10.0227 21.7977 10.0227H19.8374C19.8607 9.85883 19.8607 9.69396 19.8546 9.54565V7.82052C19.8546 7.49621 19.5878 7.22827 19.2641 7.22827C18.9337 7.22827 18.6747 7.49615 18.6747 7.82052V9.55502C18.6747 9.6939 18.6747 9.91365 18.6453 9.97065C18.6453 9.97065 18.564 10.0226 18.2507 10.0226C18.1606 10.0226 18.0637 10.0226 17.9579 10.0226C17.1504 10.0126 16.2218 10.0099 15.6695 10.5523C15.4891 10.7349 15.2632 11.0653 15.2632 11.5928V14.8316H15.2631Z" fill="#2499FF"/>
<path d="M13.3548 9.98193C13.6863 9.98193 13.952 9.71018 13.952 9.38643V8.53681H14.9476C15.2697 8.53681 15.5359 8.27005 15.5359 7.93968C15.5359 7.61705 15.2697 7.34637 14.9476 7.34637H13.952V6.69218C13.952 6.36512 13.6863 6.09668 13.3548 6.09668C13.0327 6.09668 12.7665 6.36505 12.7665 6.69218V9.38643C12.7665 9.71018 13.0327 9.98193 13.3548 9.98193Z" fill="#2499FF"/>
<path d="M6.92757 10.8552H9.39432C9.79669 10.8409 10.1796 10.8409 10.3601 11.0307C10.52 11.1868 10.608 11.5376 10.608 12.0413V14.357C10.608 14.6846 10.8726 14.9536 11.2068 14.9536C11.5289 14.9536 11.7979 14.6847 11.7979 14.357V13.8643H12.7283C13.0565 13.8643 13.3183 13.597 13.3183 13.27C13.3183 12.9418 13.0566 12.67 12.7283 12.67H11.7979V12.0413C11.7979 11.1868 11.602 10.5818 11.1963 10.1828C10.67 9.65479 9.95882 9.65979 9.39151 9.66479H6.92757C6.59107 9.66479 6.33313 9.93429 6.33313 10.257C6.33313 10.5868 6.59107 10.8552 6.92757 10.8552Z" fill="#2499FF"/>
<path d="M8.49327 14.3186C8.49327 13.9904 8.22046 13.7214 7.90058 13.7214H3.73696C3.40821 13.7214 3.13977 13.9904 3.13977 14.3186C3.13977 14.6457 3.40821 14.9141 3.73696 14.9141H5.24621V15.9978C5.24621 16.3282 5.50796 16.5927 5.83283 16.5927C6.17046 16.5927 6.43221 16.3282 6.43221 15.9978V14.9141H7.90058C8.22046 14.9141 8.49327 14.6456 8.49327 14.3186Z" fill="#2499FF"/>
<path d="M12.161 18.2132C12.2651 18.2132 12.3636 18.2132 12.4516 18.2132H17.2456C18.3392 18.2132 19.1688 17.9232 19.7206 17.3455C20.5685 16.4478 20.5093 15.1184 20.4655 14.2401C20.4578 14.0724 20.45 13.9147 20.45 13.7824C20.45 13.4514 20.1844 13.188 19.8495 13.188C19.5258 13.188 19.264 13.4514 19.264 13.7824C19.264 13.9329 19.2718 14.1056 19.2795 14.2893C19.316 15.0553 19.357 15.9979 18.8511 16.5314C18.5423 16.8601 17.996 17.0245 17.2456 17.0245H12.4516C12.368 17.0245 12.2828 17.0245 12.1798 17.0245C11.234 17.0101 9.64333 16.9846 8.63277 17.9819C8.06602 18.5409 7.77771 19.3285 7.77771 20.3192C7.77771 20.6412 8.03834 20.9142 8.37046 20.9142C8.69421 20.9142 8.96483 20.6413 8.96483 20.3192C8.96483 19.6462 9.12696 19.158 9.4679 18.8243C10.121 18.1834 11.3508 18.2022 12.161 18.2132Z" fill="#2499FF"/>
<path d="M20.2475 20.7885C20.2475 20.4658 19.9868 20.1946 19.6553 20.1946H12.1317C11.8073 20.1946 11.5356 20.4658 11.5356 20.7885C11.5356 21.1177 11.8073 21.3834 12.1317 21.3834H14.4323V22.57C14.4323 22.9026 14.6964 23.1638 15.0235 23.1638C15.3516 23.1638 15.6168 22.9026 15.6168 22.57V21.3834H19.6553C19.9868 21.3834 20.2475 21.1177 20.2475 20.7885Z" fill="#2499FF"/>
<path d="M23.6179 23.129H23.3385V22.0232C23.3385 21.6867 23.0773 21.4277 22.7463 21.4277C22.4176 21.4277 22.1524 21.6868 22.1524 22.0232V23.129H20.0936C19.766 23.129 19.4998 23.3941 19.4998 23.7245C19.4998 24.051 19.766 24.315 20.0936 24.315H23.618C23.9435 24.315 24.2108 24.051 24.2108 23.7245C24.2107 23.394 23.9434 23.129 23.6179 23.129Z" fill="#2499FF"/>
<path d="M26.3487 20.1946V19.2244H26.5624C26.8972 19.2244 27.1623 18.9638 27.1623 18.635C27.1623 18.3068 26.8972 18.0378 26.5624 18.0378H22.4087C22.0821 18.0378 21.8143 18.3068 21.8143 18.635C21.8143 18.9638 22.0821 19.2244 22.4087 19.2244H25.1576V20.1946C25.1576 20.5295 25.4272 20.7885 25.7549 20.7885C26.082 20.7885 26.3487 20.5295 26.3487 20.1946Z" fill="#2499FF"/>
<path d="M28.2083 21.7444H26.7057C26.3742 21.7444 26.1091 22.0056 26.1091 22.3361C26.1091 22.6664 26.3741 22.9254 26.7057 22.9254H28.2083C28.5414 22.9254 28.8093 22.6664 28.8093 22.3361C28.8094 22.0056 28.5414 21.7444 28.2083 21.7444Z" fill="#2499FF"/>
</g>
<defs>
<clipPath id="clip0_23_223">
<rect width="32" height="32" fill="white"/>
</clipPath>
</defs>
</svg>
