<svg width="32" height="32" viewBox="0 0 32 32" fill="none" xmlns="http://www.w3.org/2000/svg">
<g clip-path="url(#clip0_20_173)">
<path d="M7.71414 20.397L1.86577 26.245C1.80348 26.3042 1.75366 26.3753 1.71927 26.454C1.68488 26.5328 1.6666 26.6176 1.66552 26.7036C1.66443 26.7895 1.68058 26.8748 1.71297 26.9544C1.74536 27.034 1.79334 27.1063 1.85411 27.167C1.91489 27.2278 1.98721 27.2757 2.06682 27.3081C2.14643 27.3405 2.23171 27.3566 2.31764 27.3554C2.40357 27.3543 2.4884 27.336 2.56714 27.3016C2.64588 27.2672 2.71694 27.2174 2.77612 27.155L8.62386 21.3076C8.73957 21.186 8.80316 21.0239 8.8011 20.856C8.79904 20.6882 8.73147 20.5277 8.61282 20.4089C8.49416 20.2902 8.3338 20.2224 8.16591 20.2202C7.99803 20.2179 7.83592 20.2814 7.71414 20.397ZM16.0644 19.6212C16.0046 19.5614 15.9336 19.5139 15.8555 19.4815C15.7774 19.4492 15.6936 19.4325 15.609 19.4325C15.5245 19.4325 15.4407 19.4492 15.3626 19.4815C15.2845 19.5139 15.2135 19.5614 15.1537 19.6212L9.30596 25.4695C9.18524 25.5903 9.11745 25.7541 9.11749 25.9248C9.11752 26.0956 9.18536 26.2593 9.30612 26.3801C9.42688 26.5008 9.59066 26.5686 9.76141 26.5686C9.93217 26.5685 10.0959 26.5007 10.2166 26.3799L16.0644 20.5315C16.185 20.4108 16.2527 20.2471 16.2527 20.0765C16.2527 19.9059 16.185 19.7422 16.0644 19.6215V19.6212ZM5.97393 28.8009L3.87445 30.9004C3.75369 31.0212 3.68586 31.185 3.68586 31.3558C3.68586 31.5265 3.75369 31.6903 3.87445 31.8111C3.99522 31.9319 4.159 31.9997 4.32979 31.9997C4.50057 31.9997 4.66436 31.9319 4.78512 31.8111L6.88426 29.7119C7.00507 29.5912 7.07298 29.4275 7.07304 29.2567C7.0731 29.0859 7.00532 28.9221 6.8846 28.8013C6.82482 28.7415 6.75386 28.694 6.67574 28.6616C6.59763 28.6292 6.51389 28.6125 6.42932 28.6125C6.25854 28.6124 6.09474 28.6802 5.97393 28.8009ZM30.1352 15.6134L27.2094 12.688C27.3181 12.5652 27.376 12.4056 27.3711 12.2417C27.3662 12.0778 27.2989 11.9219 27.183 11.8059L24.2582 8.87982L24.3789 8.7591C24.4996 8.63837 24.5674 8.47464 24.5674 8.30393C24.5674 8.13321 24.4996 7.96949 24.3789 7.84875L21.4566 4.92617L21.9047 4.47551C22.0254 4.35477 22.0932 4.19105 22.0932 4.02033C22.0932 3.84961 22.0254 3.68589 21.9047 3.56516L18.5279 0.187722C18.4681 0.127863 18.3971 0.0803754 18.319 0.0479761C18.2408 0.0155767 18.157 -0.00109863 18.0724 -0.00109863C17.9878 -0.00109863 17.9041 0.0155767 17.8259 0.0479761C17.7477 0.0803754 17.6767 0.127863 17.6169 0.187722L11.8777 5.9302L10.4497 4.50287C10.329 4.38217 10.1652 4.31437 9.99453 4.31437C9.82382 4.31437 9.66009 4.38217 9.53936 4.50287L5.82489 8.21637C5.75735 8.28403 5.70572 8.36587 5.67376 8.45596C5.6418 8.54605 5.6303 8.64213 5.6401 8.73721L6.25173 14.7227L2.873 18.1011C2.75738 18.2229 2.69389 18.385 2.69607 18.5528C2.69825 18.7207 2.76593 18.8811 2.88467 18.9998C3.00341 19.1185 3.16383 19.1861 3.33171 19.1882C3.49959 19.1904 3.66165 19.1268 3.78335 19.0112L7.37647 15.4168C7.44392 15.3492 7.49549 15.2674 7.52745 15.1775C7.5594 15.0875 7.57094 14.9915 7.56124 14.8966L6.94961 8.90911L9.99196 5.86678L11.4193 7.29443C11.4791 7.35429 11.5501 7.40178 11.6282 7.43418C11.7064 7.46658 11.7902 7.48325 11.8748 7.48325C11.9594 7.48325 12.0432 7.46658 12.1213 7.43418C12.1995 7.40178 12.2705 7.35429 12.3303 7.29443L18.0711 1.55292L20.5363 4.01904C20.5212 4.03128 20.5041 4.04158 20.4909 4.05574L17.6385 6.90815C17.5177 7.02887 17.4499 7.19261 17.4498 7.36337C17.4498 7.53412 17.5176 7.69789 17.6383 7.81866C17.7591 7.93942 17.9228 8.00728 18.0936 8.00731C18.2643 8.00734 18.4281 7.93954 18.5488 7.81882L20.5382 5.82944L23.0114 8.30264L22.8907 8.42336C22.8745 8.44109 22.8592 8.45968 22.845 8.47904L20.3621 10.9651C20.2413 11.0859 20.1735 11.2498 20.1735 11.4206C20.1735 11.5915 20.2413 11.7553 20.3621 11.8761C20.4829 11.9969 20.6468 12.0648 20.8176 12.0648C20.9885 12.0648 21.1523 11.9969 21.2731 11.8761L23.3536 9.795L25.7975 12.2392L23.0323 15.0044C22.9725 15.0642 22.9251 15.1352 22.8928 15.2134C22.8604 15.2915 22.8438 15.3753 22.8438 15.4598C22.8438 15.5444 22.8605 15.6282 22.8929 15.7063C22.9252 15.7844 22.9727 15.8554 23.0325 15.9152C23.0923 15.975 23.1633 16.0225 23.2415 16.0548C23.3196 16.0872 23.4034 16.1038 23.488 16.1038C23.5725 16.1038 23.6563 16.0871 23.7344 16.0547C23.8126 16.0223 23.8835 15.9749 23.9433 15.9151L26.2804 13.5777L28.7706 16.068L21.2184 23.6192L18.8878 24.0506C18.7597 24.0747 18.6419 24.1367 18.5495 24.2286L14.555 28.2251C14.4342 28.3458 14.3663 28.5095 14.3663 28.6803C14.3663 28.851 14.4341 29.0148 14.5548 29.1356C14.6755 29.2563 14.8393 29.3242 15.01 29.3242C15.1808 29.3243 15.3446 29.2565 15.4653 29.1357L19.3192 25.2799L21.6504 24.8489C21.7787 24.8255 21.8967 24.7635 21.9887 24.6712L30.1352 16.5244C30.195 16.4646 30.2425 16.3936 30.2749 16.3155C30.3073 16.2373 30.324 16.1535 30.324 16.0689C30.324 15.9843 30.3073 15.9006 30.2749 15.8224C30.2425 15.7442 30.195 15.6732 30.1352 15.6134Z" fill="#2499FF"/>
</g>
<defs>
<clipPath id="clip0_20_173">
<rect width="32" height="32" fill="white"/>
</clipPath>
</defs>
</svg>
