<svg width="80" height="34" viewBox="0 0 80 34" fill="none" xmlns="http://www.w3.org/2000/svg">
<path d="M42.73 5.77894C42.73 5.77894 42.1452 8.34383 39.6755 8.34383C37.2095 8.34383 36.9759 5.77894 36.9759 5.77894C36.9759 5.77894 35.3356 9.97652 34.2368 9.97652C33.1371 9.97652 18.5581 2.89141 18.5581 2.89141C18.5581 2.89141 16.3397 1.9473 17.3985 0.00625992C15.8538 0.690549 4.73816 4.22668 0 16.3578C1.62316 15.1801 3.30058 14.3221 4.79907 15.0759C6.00443 15.684 12.1616 19.5666 12.1616 19.5666C12.1616 19.5666 13.119 20.1233 12.874 22.7715C13.3027 22.3998 16.0732 20.1114 17.5988 20.8471C19.1263 21.5842 25.9173 25.6566 25.9173 25.6566C25.9173 25.6566 26.4027 25.966 26.3718 28.5437C27.2117 27.4659 29.0637 25.6276 30.4 26.2995C31.6876 26.9838 36.2131 29.4269 38.0813 30.4657C39.951 31.5069 40.1837 33.9937 40.1837 33.9937C40.1837 33.9937 40.2336 31.5121 42.1028 30.4657C43.2825 29.8671 49.2769 26.6169 49.2769 26.6169C49.2769 26.6169 50.7968 26.0654 53.7405 28.8673C53.6982 27.8099 53.2451 26.508 54.0784 25.6595C54.9092 24.8158 61.7883 21.0198 61.7883 21.0198C61.7883 21.0198 63.1374 20.1385 66.5098 22.7739C66.5669 21.8916 66.5303 20.6077 67.5205 19.8868C68.5094 19.1654 75.5193 15.3961 75.5193 15.3961C75.5193 15.3961 77.7896 14.205 80.0005 17.3214C79.8211 15.7059 76.2435 6.12251 62.8928 0.649148C62.6558 1.39244 63.8435 1.89876 61.1221 3.21357C58.8594 4.30757 45.7617 9.94606 45.7617 9.94606C45.7617 9.94606 44.2328 10.549 42.73 5.77894Z" fill="#222121"/>
</svg>
